<svg xmlns="http://www.w3.org/2000/svg" xmlns:xlink="http://www.w3.org/1999/xlink" viewBox="0 0 120 120">
  <defs>
    <clipPath id="clip-path">
      <rect id="Rectangle_18" data-name="Rectangle 18" width="120" height="120" transform="translate(578 519)" fill="#fff" stroke="#707070" stroke-width="1"/>
    </clipPath>
  </defs>
  <g id="Group_38" data-name="Group 38" transform="translate(-578 -519)">
    <rect id="Rectangle_17" data-name="Rectangle 17" width="120" height="120" transform="translate(578 519)" fill="#fff"/>
    <g id="Mask_Group_1" data-name="Mask Group 1" clip-path="url(#clip-path)">
      <path id="Path_2" data-name="Path 2" d="M51.5-32.187A28.976,28.976,0,0,0,80.469-61.156,28.976,28.976,0,0,0,51.5-90.125,28.976,28.976,0,0,0,22.531-61.156,28.976,28.976,0,0,0,51.5-32.187ZM77.25-25.75H66.165A35.057,35.057,0,0,1,51.5-22.531,35.127,35.127,0,0,1,36.834-25.75H25.75A25.748,25.748,0,0,0,0,0V3.219a9.659,9.659,0,0,0,9.656,9.656H93.344A9.659,9.659,0,0,0,103,3.219V0A25.748,25.748,0,0,0,77.25-25.75Z" transform="translate(587 634)" fill="#131313"/>
    </g>
  </g>
</svg>
